<svg id="Layer_1" enable-background="new 0 0 256 256" height="512" viewBox="0 0 256 256" width="512" xmlns="http://www.w3.org/2000/svg"><g><path d="m207.172 242.67h-158.344c-.829 0-1.5.672-1.5 1.5s.671 1.5 1.5 1.5h158.343c.829 0 1.5-.672 1.5-1.5s-.671-1.5-1.499-1.5z" fill="#3f3679"/><path d="m232.003 242.67h-12.75c-.829 0-1.5.672-1.5 1.5s.671 1.5 1.5 1.5h12.75c.829 0 1.5-.672 1.5-1.5s-.672-1.5-1.5-1.5z" fill="#3f3679"/><path d="m36.747 242.67h-12.75c-.829 0-1.5.672-1.5 1.5s.671 1.5 1.5 1.5h12.75c.829 0 1.5-.672 1.5-1.5s-.671-1.5-1.5-1.5z" fill="#3f3679"/><path d="m143.499 110.279.004-.002v-11.63c-4.528 2.764-9.838 4.36-15.502 4.36-5.664 0-10.974-1.596-15.502-4.36h-.001v11.63l.004.002 15.498 9.767z" fill="#f8af23"/><path d="m112.498 98.646-.001 11.63.004.002 8.496 5.354v-13.478c-3.035-.735-5.899-1.921-8.499-3.508z" fill="#f87023"/><g><circle cx="98.085" cy="62.695" fill="#f87023" r="7.744"/></g><g><circle cx="157.915" cy="62.695" fill="#f8af23" r="7.744"/></g><path d="m196.034 139.708c-5.192-14.004-17.572-24.09-32.337-26.345l-20.199-3.085-15.498 9.768-15.499-9.768-20.198 3.085c-14.765 2.255-27.145 12.341-32.337 26.345l-7.34 19.797h75.355.037 75.355z" fill="#63bce7"/><path d="m196.034 139.709c-5.192-14.004-17.572-24.091-32.337-26.345l-20.199-3.085-1.658 1.045 13.357 2.04c14.765 2.255 27.145 12.341 32.337 26.345l7.34 19.797h8.5z" fill="#63e2e7"/><path d="m100.803 113.363 13.357-2.04-1.658-1.045-20.198 3.085c-14.765 2.255-27.145 12.341-32.337 26.345l-7.34 19.797h8.5l7.34-19.797c5.191-14.004 17.571-24.09 32.336-26.345z" fill="#6377e7"/><path d="m98.085 42.615v30.475c0 10.789 5.789 20.291 14.413 25.556 4.528 2.764 9.838 4.36 15.502 4.36 5.664 0 10.974-1.596 15.502-4.36 8.625-5.264 14.413-14.767 14.413-25.556v-30.475z" fill="#f8af23"/><path d="m106.585 73.09v-30.475h-8.5v30.475c0 10.789 5.789 20.291 14.414 25.556 4.528 2.764 9.838 4.36 15.502 4.36 1.442 0 2.861-.106 4.25-.306-4.067-.585-7.877-1.994-11.252-4.054-8.626-5.264-14.414-14.767-14.414-25.556z" fill="#f87023"/><g><circle cx="114.19" cy="67.08" fill="#3f3679" r="2.84"/></g><g><circle cx="141.81" cy="67.08" fill="#3f3679" r="2.84"/></g><path d="m128 120.046-15.499-9.767-13.402 2.046 20.492 14.429z" fill="#f46275"/><path d="m99.099 112.325 20.492 14.429 4.246-3.387-17.295-12.178z" fill="#f43075"/><path d="m128 120.046 15.499-9.767 13.402 2.046-20.492 14.429z" fill="#f46275"/><path d="m136.409 126.754-8.409-6.708-8.409 6.708 5.031 5.807-5.031 26.944h16.818l-5.136-26.997z" fill="#9e9e9e"/><path d="m128 11.83c-19.212 0-34.786 13.783-34.786 30.785 0 5.74 1.78 11.109 4.871 15.708v1.675h1.208 2.808v-10.979s7.812-.352 10.838-6.405c0 0 13.691 13.302 30.564 0 0 0 3.782 6.686 9.694 6.686v10.698h3.511 1.208v-1.675c3.09-4.599 4.871-9.969 4.871-15.708-.001-17.002-15.575-30.785-34.787-30.785z" fill="#9e9e9e"/><path d="m128 11.83c-1.44 0-2.856.087-4.25.237 17.206 1.856 30.536 14.82 30.536 30.548 0 2.627-.389 5.17-1.09 7.604v9.78h3.511 1.208v-1.676c3.091-4.599 4.871-9.969 4.871-15.708 0-17.002-15.574-30.785-34.786-30.785z" fill="#cecece"/><path d="m132.25 12.067c-1.394-.15-2.81-.237-4.25-.237-19.212 0-34.786 13.783-34.786 30.785 0 5.74 1.78 11.109 4.871 15.708v1.675h1.208 2.807v-10.978s.134-.007.366-.03c-.491-2.057-.752-4.188-.752-6.375 0-15.728 13.33-28.692 30.536-30.548z" fill="#707070"/><path d="m119.591 126.754 5.031 5.807-5.031 26.944h8.409v-39.459z" fill="#707070"/><path d="m20.165 159.505h215.67v21.075h-215.67z" fill="#9e9e9e"/><path d="m227.335 159.505h8.5v21.075h-8.5z" fill="#cecece"/><path d="m20.165 159.505h8.5v21.075h-8.5z" fill="#707070"/><path d="m30.219 180.58h195.562v48h-195.562z" fill="#f46275"/><path d="m30.219 180.58h8.5v48h-8.5z" fill="#f43075"/><path d="m217.281 180.58h8.5v48h-8.5z" fill="#f48875"/><g><path d="m62.272 111.785c-3.55 0-6.455-2.905-6.455-6.455 0-3.55 2.905-6.455 6.455-6.455 3.55 0 6.455 2.905 6.455 6.455 0 3.551-2.905 6.455-6.455 6.455z" fill="#63bce7"/></g><g><path d="m193.728 111.785c3.55 0 6.455-2.905 6.455-6.455 0-3.55-2.905-6.455-6.455-6.455-3.55 0-6.455 2.905-6.455 6.455 0 3.551 2.905 6.455 6.455 6.455z" fill="#63bce7"/></g><path d="m156.901 112.325-20.492 14.429-4.246-3.387 17.295-12.178z" fill="#f48875"/><g fill="#3f3679"><path d="m128 81.758c.829 0 1.5-.672 1.5-1.5v-8.52c0-.828-.671-1.5-1.5-1.5s-1.5.672-1.5 1.5v8.52c0 .828.671 1.5 1.5 1.5z"/><path d="m120.141 85.207c-.613.558-.657 1.507-.1 2.119.19.209 4.313 4.652 10.487 4.652.667 0 1.358-.052 2.07-.167.818-.131 1.375-.901 1.243-1.719-.131-.817-.901-1.377-1.719-1.242-5.674.908-9.823-3.503-9.865-3.548-.558-.608-1.505-.652-2.116-.095z"/><path d="m122.059 61.195c0-.828-.671-1.5-1.5-1.5h-12.739c-.829 0-1.5.672-1.5 1.5s.671 1.5 1.5 1.5h12.739c.829 0 1.5-.672 1.5-1.5z"/><path d="m135.44 62.695h12.739c.829 0 1.5-.672 1.5-1.5s-.671-1.5-1.5-1.5h-12.739c-.829 0-1.5.672-1.5 1.5s.672 1.5 1.5 1.5z"/><path d="m235.835 158.005h-19.481v-27.175c0-.35-.122-.688-.345-.957l-16.143-19.486c1.135-1.375 1.818-3.138 1.818-5.057 0-4.387-3.569-7.955-7.956-7.955-4.386 0-7.955 3.568-7.955 7.955s3.569 7.955 7.955 7.955c1.386 0 2.69-.358 3.826-.984l15.799 19.07v26.634h-8.936l-6.977-18.818c-5.379-14.507-18.222-24.97-33.517-27.306l-6.796-1.038-12.125-1.852v-9.537c8.906-5.779 14.413-15.793 14.413-26.364v-1.284c4.385-.72 7.744-4.525 7.744-9.11 0-3.658-2.11-6.887-5.354-8.383 1.622-3.713 2.481-7.676 2.481-11.698 0-17.802-16.278-32.285-36.286-32.285s-36.286 14.483-36.286 32.285c0 4.022.859 7.985 2.481 11.697-3.21 1.496-5.354 4.765-5.354 8.383 0 4.585 3.359 8.39 7.744 9.11v1.284c0 10.571 5.508 20.585 14.413 26.364v9.537l-12.125 1.852-6.796 1.038c-15.295 2.336-28.138 12.799-33.517 27.306l-6.977 18.818h-8.936v-26.634l15.799-19.07c1.136.626 2.44.984 3.827.984 4.386 0 7.955-3.568 7.955-7.955s-3.569-7.955-7.956-7.955c-4.386 0-7.955 3.568-7.955 7.955 0 1.919.683 3.681 1.818 5.056l-16.143 19.487c-.223.27-.345.607-.345.957v27.175h-19.482c-.829 0-1.5.672-1.5 1.5v21.075c0 .828.671 1.5 1.5 1.5h8.554v46.5c0 .828.671 1.5 1.5 1.5h195.562c.829 0 1.5-.672 1.5-1.5v-46.5h8.554c.829 0 1.5-.672 1.5-1.5v-21.075c0-.827-.671-1.499-1.5-1.499zm-42.107-47.72c-2.732 0-4.955-2.223-4.955-4.955s2.223-4.955 4.956-4.955 4.955 2.223 4.955 4.955-2.224 4.955-4.956 4.955zm-131.456-9.91c2.732 0 4.955 2.223 4.955 4.955s-2.223 4.955-4.955 4.955c-2.732 0-4.955-2.223-4.955-4.955s2.223-4.955 4.955-4.955zm132.356 39.854 6.59 17.775h-63.568l-4.766-25.051 4.529-5.073 19.858-13.982 6.199.947c14.219 2.173 26.157 11.899 31.158 25.384zm-68.873-8.651-4.008-4.626 6.252-4.987 6.234 4.973-4.081 4.571c-.311.349-.441.821-.354 1.279l4.798 25.217h-13.2l4.699-25.169c.085-.449-.04-.912-.34-1.258zm-6.22-6.698-16.523-11.635 9.163-1.399 13.24 8.344zm8.465-20.374c4.875 0 9.664-1.152 14.002-3.329v8.271l-14.002 8.825-14.002-8.824v-8.271c4.338 2.176 9.126 3.328 14.002 3.328zm8.465 20.374-5.88-4.69 13.24-8.344 9.164 1.399zm27.694-62.185c0 2.925-2.024 5.379-4.744 6.053v-8.186s0-.364 0-.563v-1.225c.376-.577.726-1.166 1.06-1.76 2.227.997 3.684 3.187 3.684 5.681zm-36.159-49.365c18.354 0 33.286 13.138 33.286 29.285 0 5.234-1.596 10.377-4.616 14.871-.166.248-.255.539-.255.837v.176h-1.72v-9.198c0-.828-.671-1.5-1.5-1.5-4.95 0-8.355-5.867-8.388-5.924-.215-.381-.587-.649-1.016-.733-.43-.082-.875.022-1.218.294-15.601 12.302-28.07.604-28.59.102-.343-.332-.826-.485-1.296-.402-.472.08-.877.38-1.091.808-2.585 5.171-9.498 5.573-9.564 5.577-.801.035-1.433.696-1.433 1.498v9.479h-1.016v-.176c0-.298-.089-.589-.255-.837-3.02-4.494-4.616-9.637-4.616-14.871.002-16.148 14.934-29.286 33.288-29.286zm-36.159 49.365c0-2.468 1.479-4.688 3.682-5.685.334.596.686 1.186 1.062 1.764v1.225 8.75c-2.72-.675-4.744-3.129-4.744-6.054zm7.743 10.395v-11.591h2.516c.829 0 1.5-.672 1.5-1.5v-9.645c2.325-.376 6.921-1.594 9.724-5.486 3.991 2.985 15.862 9.929 29.811-.099 1.425 1.938 4.408 5.242 8.561 5.911v9.318c0 .828.671 1.5 1.5 1.5h3.22v11.592c0 9.818-5.248 19.12-13.695 24.275-4.437 2.709-9.527 4.141-14.72 4.141-5.194 0-10.284-1.432-14.721-4.141-8.448-5.155-13.696-14.457-13.696-24.275zm-38.212 67.139c5-13.485 16.939-23.212 31.157-25.384l6.199-.947 19.849 13.976 4.437 5.121-4.669 25.009h-63.563zm162.909 86.851h-192.562v-21h156.281c.829 0 1.5-.672 1.5-1.5s-.671-1.5-1.5-1.5h-156.281v-21h192.562zm10.054-48h-8.554-195.562-8.554v-7.537h131.585c.829 0 1.5-.672 1.5-1.5s-.671-1.5-1.5-1.5h-131.585v-7.538h97.926 16.818 97.926z"/><path d="m167 171.543h23.25c.829 0 1.5-.672 1.5-1.5s-.671-1.5-1.5-1.5h-23.25c-.829 0-1.5.672-1.5 1.5s.671 1.5 1.5 1.5z"/><path d="m201.875 206.08h16.5c.829 0 1.5-.672 1.5-1.5s-.671-1.5-1.5-1.5h-16.5c-.829 0-1.5.672-1.5 1.5s.671 1.5 1.5 1.5z"/></g></g></svg>